<mxfile host="app.diagrams.net" modified="2020-09-17T17:16:04.285Z" agent="5.0 (Windows NT 10.0; Win64; x64) AppleWebKit/537.36 (KHTML, like Gecko) Chrome/85.0.4183.102 Safari/537.36 Edg/85.0.564.51" etag="lKGHheePFhpSwpu_liu5" version="13.7.3" type="github" pages="6">
  <diagram id="rVImeahcX5V_duMhvCi_" name="Overview">
    <mxGraphModel dx="1221" dy="645" grid="1" gridSize="10" guides="1" tooltips="1" connect="1" arrows="1" fold="1" page="1" pageScale="1" pageWidth="850" pageHeight="1100" math="0" shadow="0">
      <root>
        <mxCell id="LmtEXReKCvZCGFeEZ9cL-0" />
        <mxCell id="LmtEXReKCvZCGFeEZ9cL-1" parent="LmtEXReKCvZCGFeEZ9cL-0" />
        <mxCell id="LmtEXReKCvZCGFeEZ9cL-7" value="" style="whiteSpace=wrap;html=1;aspect=fixed;" vertex="1" parent="LmtEXReKCvZCGFeEZ9cL-1">
          <mxGeometry x="480" y="220" width="200" height="200" as="geometry" />
        </mxCell>
        <mxCell id="LmtEXReKCvZCGFeEZ9cL-3" value="" style="whiteSpace=wrap;html=1;aspect=fixed;" vertex="1" parent="LmtEXReKCvZCGFeEZ9cL-1">
          <mxGeometry x="280" y="220" width="200" height="200" as="geometry" />
        </mxCell>
        <mxCell id="LmtEXReKCvZCGFeEZ9cL-5" value="" style="rounded=0;whiteSpace=wrap;html=1;strokeColor=#A50040;fontColor=#ffffff;fillColor=#4C0099;" vertex="1" parent="LmtEXReKCvZCGFeEZ9cL-1">
          <mxGeometry x="670" y="290" width="20" height="60" as="geometry" />
        </mxCell>
        <mxCell id="LmtEXReKCvZCGFeEZ9cL-6" value="" style="rounded=0;whiteSpace=wrap;html=1;strokeColor=#A50040;fontColor=#ffffff;fillColor=#4C0099;" vertex="1" parent="LmtEXReKCvZCGFeEZ9cL-1">
          <mxGeometry x="471" y="290" width="20" height="60" as="geometry" />
        </mxCell>
        <mxCell id="LmtEXReKCvZCGFeEZ9cL-9" value="" style="rounded=0;whiteSpace=wrap;html=1;strokeColor=#A50040;fontColor=#ffffff;fillColor=#4C0099;" vertex="1" parent="LmtEXReKCvZCGFeEZ9cL-1">
          <mxGeometry x="270" y="290" width="20" height="60" as="geometry" />
        </mxCell>
        <mxCell id="LmtEXReKCvZCGFeEZ9cL-10" value="Private" style="text;html=1;strokeColor=none;fillColor=none;align=center;verticalAlign=middle;whiteSpace=wrap;rounded=0;" vertex="1" parent="LmtEXReKCvZCGFeEZ9cL-1">
          <mxGeometry x="560" y="390" width="40" height="20" as="geometry" />
        </mxCell>
        <mxCell id="LmtEXReKCvZCGFeEZ9cL-11" value="Public" style="text;html=1;strokeColor=none;fillColor=none;align=center;verticalAlign=middle;whiteSpace=wrap;rounded=0;" vertex="1" parent="LmtEXReKCvZCGFeEZ9cL-1">
          <mxGeometry x="360" y="390" width="40" height="20" as="geometry" />
        </mxCell>
        <mxCell id="LmtEXReKCvZCGFeEZ9cL-13" value="" style="ellipse;whiteSpace=wrap;html=1;aspect=fixed;strokeColor=#3700CC;fontColor=#ffffff;fillColor=#CC0066;" vertex="1" parent="LmtEXReKCvZCGFeEZ9cL-1">
          <mxGeometry x="570" y="310" width="20" height="20" as="geometry" />
        </mxCell>
        <mxCell id="LmtEXReKCvZCGFeEZ9cL-15" value="" style="ellipse;whiteSpace=wrap;html=1;aspect=fixed;strokeColor=#3700CC;fontColor=#ffffff;fillColor=#CC0066;" vertex="1" parent="LmtEXReKCvZCGFeEZ9cL-1">
          <mxGeometry x="370" y="310" width="20" height="20" as="geometry" />
        </mxCell>
        <mxCell id="LmtEXReKCvZCGFeEZ9cL-16" value="" style="endArrow=classic;html=1;fillColor=#f8cecc;strokeColor=#CC0066;" edge="1" parent="LmtEXReKCvZCGFeEZ9cL-1">
          <mxGeometry width="50" height="50" relative="1" as="geometry">
            <mxPoint x="210" y="320" as="sourcePoint" />
            <mxPoint x="750" y="320" as="targetPoint" />
          </mxGeometry>
        </mxCell>
        <mxCell id="LmtEXReKCvZCGFeEZ9cL-27" value="Jean-Kevin" style="shape=umlActor;verticalLabelPosition=bottom;verticalAlign=top;html=1;outlineConnect=0;" vertex="1" parent="LmtEXReKCvZCGFeEZ9cL-1">
          <mxGeometry x="170" y="280" width="30" height="60" as="geometry" />
        </mxCell>
        <mxCell id="LmtEXReKCvZCGFeEZ9cL-28" value="&lt;h1&gt;Heading&lt;/h1&gt;&lt;p&gt;&lt;/p&gt;&lt;ol&gt;&lt;li&gt;&lt;font color=&quot;#4c0099&quot;&gt;&lt;b&gt;DOOR&lt;/b&gt;&lt;/font&gt;&lt;/li&gt;&lt;li&gt;&lt;b&gt;&lt;font color=&quot;#cc0066&quot;&gt;DETECTOR&lt;/font&gt;&lt;/b&gt;&lt;/li&gt;&lt;li&gt;&lt;b&gt;&lt;font color=&quot;#ff8000&quot;&gt;SCREEN&lt;/font&gt;&lt;/b&gt;&lt;/li&gt;&lt;li&gt;&lt;b&gt;&lt;font color=&quot;#006600&quot;&gt;DATABANK&lt;/font&gt;&lt;/b&gt;&lt;/li&gt;&lt;/ol&gt;" style="text;html=1;strokeColor=none;fillColor=none;spacing=5;spacingTop=-20;whiteSpace=wrap;overflow=hidden;rounded=0;" vertex="1" parent="LmtEXReKCvZCGFeEZ9cL-1">
          <mxGeometry x="30" y="60" width="190" height="120" as="geometry" />
        </mxCell>
        <mxCell id="LmtEXReKCvZCGFeEZ9cL-29" value="PrgrammingBoard" style="rounded=0;whiteSpace=wrap;html=1;" vertex="1" parent="LmtEXReKCvZCGFeEZ9cL-1">
          <mxGeometry x="425" y="490" width="111" height="30" as="geometry" />
        </mxCell>
        <mxCell id="LmtEXReKCvZCGFeEZ9cL-31" value="" style="endArrow=none;dashed=1;html=1;dashPattern=1 3;strokeWidth=2;entryX=0;entryY=0.5;entryDx=0;entryDy=0;exitX=0.75;exitY=1;exitDx=0;exitDy=0;" edge="1" parent="LmtEXReKCvZCGFeEZ9cL-1" source="LmtEXReKCvZCGFeEZ9cL-9" target="LmtEXReKCvZCGFeEZ9cL-29">
          <mxGeometry width="50" height="50" relative="1" as="geometry">
            <mxPoint x="330" y="540" as="sourcePoint" />
            <mxPoint x="380" y="490" as="targetPoint" />
          </mxGeometry>
        </mxCell>
        <mxCell id="LmtEXReKCvZCGFeEZ9cL-32" value="" style="endArrow=none;dashed=1;html=1;dashPattern=1 3;strokeWidth=2;entryX=1;entryY=0.5;entryDx=0;entryDy=0;exitX=0;exitY=1;exitDx=0;exitDy=0;" edge="1" parent="LmtEXReKCvZCGFeEZ9cL-1" source="LmtEXReKCvZCGFeEZ9cL-5" target="LmtEXReKCvZCGFeEZ9cL-29">
          <mxGeometry width="50" height="50" relative="1" as="geometry">
            <mxPoint x="700" y="427.5" as="sourcePoint" />
            <mxPoint x="845" y="582.5" as="targetPoint" />
          </mxGeometry>
        </mxCell>
        <mxCell id="LmtEXReKCvZCGFeEZ9cL-33" value="" style="endArrow=none;dashed=1;html=1;dashPattern=1 3;strokeWidth=2;entryX=0;entryY=0;entryDx=0;entryDy=0;exitX=0.5;exitY=1;exitDx=0;exitDy=0;" edge="1" parent="LmtEXReKCvZCGFeEZ9cL-1" source="LmtEXReKCvZCGFeEZ9cL-15" target="LmtEXReKCvZCGFeEZ9cL-29">
          <mxGeometry width="50" height="50" relative="1" as="geometry">
            <mxPoint x="305" y="370" as="sourcePoint" />
            <mxPoint x="450" y="525" as="targetPoint" />
          </mxGeometry>
        </mxCell>
        <mxCell id="LmtEXReKCvZCGFeEZ9cL-34" value="" style="endArrow=none;dashed=1;html=1;dashPattern=1 3;strokeWidth=2;entryX=1;entryY=0;entryDx=0;entryDy=0;exitX=0.5;exitY=1;exitDx=0;exitDy=0;" edge="1" parent="LmtEXReKCvZCGFeEZ9cL-1" source="LmtEXReKCvZCGFeEZ9cL-13" target="LmtEXReKCvZCGFeEZ9cL-29">
          <mxGeometry width="50" height="50" relative="1" as="geometry">
            <mxPoint x="390" y="340" as="sourcePoint" />
            <mxPoint x="440" y="500" as="targetPoint" />
          </mxGeometry>
        </mxCell>
        <mxCell id="LmtEXReKCvZCGFeEZ9cL-35" value="" style="endArrow=none;dashed=1;html=1;dashPattern=1 3;strokeWidth=2;entryX=0.5;entryY=0;entryDx=0;entryDy=0;exitX=0;exitY=1;exitDx=0;exitDy=0;" edge="1" parent="LmtEXReKCvZCGFeEZ9cL-1" source="LmtEXReKCvZCGFeEZ9cL-6" target="LmtEXReKCvZCGFeEZ9cL-29">
          <mxGeometry width="50" height="50" relative="1" as="geometry">
            <mxPoint x="470" y="360" as="sourcePoint" />
            <mxPoint x="450" y="510" as="targetPoint" />
            <Array as="points">
              <mxPoint x="471" y="420" />
            </Array>
          </mxGeometry>
        </mxCell>
        <mxCell id="LmtEXReKCvZCGFeEZ9cL-37" value="" style="shape=cylinder3;whiteSpace=wrap;html=1;boundedLbl=1;backgroundOutline=1;size=15;fillColor=#006600;" vertex="1" parent="LmtEXReKCvZCGFeEZ9cL-1">
          <mxGeometry x="456" y="570" width="49" height="70" as="geometry" />
        </mxCell>
        <mxCell id="LmtEXReKCvZCGFeEZ9cL-40" value="" style="ellipse;whiteSpace=wrap;html=1;aspect=fixed;strokeColor=#3700CC;fontColor=#ffffff;fillColor=#CC0066;" vertex="1" parent="LmtEXReKCvZCGFeEZ9cL-1">
          <mxGeometry x="471" y="310" width="20" height="20" as="geometry" />
        </mxCell>
        <mxCell id="LmtEXReKCvZCGFeEZ9cL-41" value="" style="endArrow=none;dashed=1;html=1;dashPattern=1 3;strokeWidth=2;entryX=0.5;entryY=0;entryDx=0;entryDy=0;entryPerimeter=0;exitX=0.5;exitY=1;exitDx=0;exitDy=0;" edge="1" parent="LmtEXReKCvZCGFeEZ9cL-1" source="LmtEXReKCvZCGFeEZ9cL-29" target="LmtEXReKCvZCGFeEZ9cL-37">
          <mxGeometry width="50" height="50" relative="1" as="geometry">
            <mxPoint x="350" y="510" as="sourcePoint" />
            <mxPoint x="400" y="460" as="targetPoint" />
          </mxGeometry>
        </mxCell>
        <mxCell id="LmtEXReKCvZCGFeEZ9cL-42" value="" style="endArrow=none;dashed=1;html=1;dashPattern=1 3;strokeWidth=2;entryX=1;entryY=0.5;entryDx=0;entryDy=0;exitX=0.75;exitY=0;exitDx=0;exitDy=0;" edge="1" parent="LmtEXReKCvZCGFeEZ9cL-1" source="LmtEXReKCvZCGFeEZ9cL-29" target="LmtEXReKCvZCGFeEZ9cL-6">
          <mxGeometry width="50" height="50" relative="1" as="geometry">
            <mxPoint x="350" y="510" as="sourcePoint" />
            <mxPoint x="400" y="460" as="targetPoint" />
            <Array as="points" />
          </mxGeometry>
        </mxCell>
        <mxCell id="LmtEXReKCvZCGFeEZ9cL-44" value="" style="rounded=0;whiteSpace=wrap;html=1;strokeColor=#BD7000;fontColor=#ffffff;fillColor=#FF8000;" vertex="1" parent="LmtEXReKCvZCGFeEZ9cL-1">
          <mxGeometry x="335" y="220" width="90" height="20" as="geometry" />
        </mxCell>
        <mxCell id="LmtEXReKCvZCGFeEZ9cL-45" value="" style="rounded=0;whiteSpace=wrap;html=1;strokeColor=#BD7000;fontColor=#ffffff;fillColor=#FF8000;" vertex="1" parent="LmtEXReKCvZCGFeEZ9cL-1">
          <mxGeometry x="536" y="220" width="90" height="20" as="geometry" />
        </mxCell>
        <mxCell id="LmtEXReKCvZCGFeEZ9cL-46" value="" style="endArrow=none;dashed=1;html=1;dashPattern=1 3;strokeWidth=2;entryX=1;entryY=1;entryDx=0;entryDy=0;exitX=0.25;exitY=0;exitDx=0;exitDy=0;" edge="1" parent="LmtEXReKCvZCGFeEZ9cL-1" source="LmtEXReKCvZCGFeEZ9cL-29" target="LmtEXReKCvZCGFeEZ9cL-44">
          <mxGeometry width="50" height="50" relative="1" as="geometry">
            <mxPoint x="320" y="340" as="sourcePoint" />
            <mxPoint x="370" y="290" as="targetPoint" />
          </mxGeometry>
        </mxCell>
        <mxCell id="LmtEXReKCvZCGFeEZ9cL-47" value="" style="endArrow=none;dashed=1;html=1;dashPattern=1 3;strokeWidth=2;entryX=0;entryY=1;entryDx=0;entryDy=0;exitX=0.908;exitY=0.025;exitDx=0;exitDy=0;exitPerimeter=0;" edge="1" parent="LmtEXReKCvZCGFeEZ9cL-1" source="LmtEXReKCvZCGFeEZ9cL-29" target="LmtEXReKCvZCGFeEZ9cL-45">
          <mxGeometry width="50" height="50" relative="1" as="geometry">
            <mxPoint x="320" y="340" as="sourcePoint" />
            <mxPoint x="370" y="290" as="targetPoint" />
          </mxGeometry>
        </mxCell>
      </root>
    </mxGraphModel>
  </diagram>
  <diagram id="C5RBs43oDa-KdzZeNtuy" name="Start / Stop">
    <mxGraphModel dx="1221" dy="645" grid="1" gridSize="10" guides="1" tooltips="1" connect="1" arrows="1" fold="1" page="1" pageScale="1" pageWidth="827" pageHeight="1169" math="0" shadow="0">
      <root>
        <mxCell id="WIyWlLk6GJQsqaUBKTNV-0" />
        <mxCell id="WIyWlLk6GJQsqaUBKTNV-1" parent="WIyWlLk6GJQsqaUBKTNV-0" />
        <mxCell id="jEPwtFdnwT9SRcF0j8tt-13" style="edgeStyle=orthogonalEdgeStyle;rounded=0;orthogonalLoop=1;jettySize=auto;html=1;exitX=0.5;exitY=1;exitDx=0;exitDy=0;entryX=0.5;entryY=0;entryDx=0;entryDy=0;" edge="1" parent="WIyWlLk6GJQsqaUBKTNV-1" source="jEPwtFdnwT9SRcF0j8tt-1" target="jEPwtFdnwT9SRcF0j8tt-2">
          <mxGeometry relative="1" as="geometry" />
        </mxCell>
        <mxCell id="jEPwtFdnwT9SRcF0j8tt-1" value="Start&lt;br&gt;Programming Board" style="rounded=1;whiteSpace=wrap;html=1;fontSize=12;glass=0;strokeWidth=1;shadow=0;" vertex="1" parent="WIyWlLk6GJQsqaUBKTNV-1">
          <mxGeometry x="65" y="30" width="120" height="40" as="geometry" />
        </mxCell>
        <mxCell id="jEPwtFdnwT9SRcF0j8tt-10" value="yes" style="edgeStyle=orthogonalEdgeStyle;rounded=0;orthogonalLoop=1;jettySize=auto;html=1;exitX=1;exitY=0.5;exitDx=0;exitDy=0;entryX=0;entryY=0.5;entryDx=0;entryDy=0;" edge="1" parent="WIyWlLk6GJQsqaUBKTNV-1" source="jEPwtFdnwT9SRcF0j8tt-2" target="jEPwtFdnwT9SRcF0j8tt-6">
          <mxGeometry relative="1" as="geometry" />
        </mxCell>
        <mxCell id="jEPwtFdnwT9SRcF0j8tt-14" style="edgeStyle=orthogonalEdgeStyle;rounded=0;orthogonalLoop=1;jettySize=auto;html=1;exitX=0.5;exitY=1;exitDx=0;exitDy=0;entryX=0.5;entryY=0;entryDx=0;entryDy=0;" edge="1" parent="WIyWlLk6GJQsqaUBKTNV-1" source="jEPwtFdnwT9SRcF0j8tt-2" target="jEPwtFdnwT9SRcF0j8tt-3">
          <mxGeometry relative="1" as="geometry" />
        </mxCell>
        <mxCell id="jEPwtFdnwT9SRcF0j8tt-2" value="&lt;font style=&quot;font-size: 11px&quot;&gt;Private&lt;br&gt;door open?&lt;/font&gt;" style="rhombus;whiteSpace=wrap;html=1;shadow=0;fontFamily=Helvetica;fontSize=12;align=center;strokeWidth=1;spacing=6;spacingTop=-4;" vertex="1" parent="WIyWlLk6GJQsqaUBKTNV-1">
          <mxGeometry x="75" y="90" width="100" height="80" as="geometry" />
        </mxCell>
        <mxCell id="jEPwtFdnwT9SRcF0j8tt-11" value="yes" style="edgeStyle=orthogonalEdgeStyle;rounded=0;orthogonalLoop=1;jettySize=auto;html=1;exitX=1;exitY=0.5;exitDx=0;exitDy=0;entryX=0;entryY=0.5;entryDx=0;entryDy=0;" edge="1" parent="WIyWlLk6GJQsqaUBKTNV-1" source="jEPwtFdnwT9SRcF0j8tt-3" target="jEPwtFdnwT9SRcF0j8tt-7">
          <mxGeometry relative="1" as="geometry" />
        </mxCell>
        <mxCell id="jEPwtFdnwT9SRcF0j8tt-15" style="edgeStyle=orthogonalEdgeStyle;rounded=0;orthogonalLoop=1;jettySize=auto;html=1;exitX=0.5;exitY=1;exitDx=0;exitDy=0;entryX=0.5;entryY=0;entryDx=0;entryDy=0;" edge="1" parent="WIyWlLk6GJQsqaUBKTNV-1" source="jEPwtFdnwT9SRcF0j8tt-3" target="jEPwtFdnwT9SRcF0j8tt-4">
          <mxGeometry relative="1" as="geometry" />
        </mxCell>
        <mxCell id="jEPwtFdnwT9SRcF0j8tt-3" value="&lt;font style=&quot;font-size: 11px&quot;&gt;Public&lt;br&gt;door open?&lt;/font&gt;" style="rhombus;whiteSpace=wrap;html=1;shadow=0;fontFamily=Helvetica;fontSize=12;align=center;strokeWidth=1;spacing=6;spacingTop=-4;" vertex="1" parent="WIyWlLk6GJQsqaUBKTNV-1">
          <mxGeometry x="75" y="190" width="100" height="80" as="geometry" />
        </mxCell>
        <mxCell id="jEPwtFdnwT9SRcF0j8tt-12" value="yes" style="edgeStyle=orthogonalEdgeStyle;rounded=0;orthogonalLoop=1;jettySize=auto;html=1;exitX=1;exitY=0.5;exitDx=0;exitDy=0;entryX=0;entryY=0.5;entryDx=0;entryDy=0;" edge="1" parent="WIyWlLk6GJQsqaUBKTNV-1" source="jEPwtFdnwT9SRcF0j8tt-4" target="jEPwtFdnwT9SRcF0j8tt-8">
          <mxGeometry relative="1" as="geometry" />
        </mxCell>
        <mxCell id="WcSn6uXNdT3VCejYM9_C-2" style="edgeStyle=orthogonalEdgeStyle;rounded=0;orthogonalLoop=1;jettySize=auto;html=1;exitX=0.5;exitY=1;exitDx=0;exitDy=0;entryX=0.5;entryY=0;entryDx=0;entryDy=0;" edge="1" parent="WIyWlLk6GJQsqaUBKTNV-1" source="jEPwtFdnwT9SRcF0j8tt-4" target="WcSn6uXNdT3VCejYM9_C-1">
          <mxGeometry relative="1" as="geometry" />
        </mxCell>
        <mxCell id="jEPwtFdnwT9SRcF0j8tt-4" value="&lt;font style=&quot;font-size: 11px&quot;&gt;Midle&lt;br&gt;door open?&lt;/font&gt;" style="rhombus;whiteSpace=wrap;html=1;shadow=0;fontFamily=Helvetica;fontSize=12;align=center;strokeWidth=1;spacing=6;spacingTop=-4;" vertex="1" parent="WIyWlLk6GJQsqaUBKTNV-1">
          <mxGeometry x="75" y="290" width="100" height="80" as="geometry" />
        </mxCell>
        <mxCell id="jEPwtFdnwT9SRcF0j8tt-6" value="Close door" style="rounded=1;whiteSpace=wrap;html=1;fontSize=12;glass=0;strokeWidth=1;shadow=0;fillColor=#f8cecc;strokeColor=#b85450;" vertex="1" parent="WIyWlLk6GJQsqaUBKTNV-1">
          <mxGeometry x="240" y="110" width="70" height="40" as="geometry" />
        </mxCell>
        <mxCell id="jEPwtFdnwT9SRcF0j8tt-7" value="Open door" style="rounded=1;whiteSpace=wrap;html=1;fontSize=12;glass=0;strokeWidth=1;shadow=0;fillColor=#d5e8d4;strokeColor=#82b366;" vertex="1" parent="WIyWlLk6GJQsqaUBKTNV-1">
          <mxGeometry x="240" y="210" width="70" height="40" as="geometry" />
        </mxCell>
        <mxCell id="jEPwtFdnwT9SRcF0j8tt-8" value="Close door" style="rounded=1;whiteSpace=wrap;html=1;fontSize=12;glass=0;strokeWidth=1;shadow=0;fillColor=#f8cecc;strokeColor=#b85450;" vertex="1" parent="WIyWlLk6GJQsqaUBKTNV-1">
          <mxGeometry x="240" y="310" width="70" height="40" as="geometry" />
        </mxCell>
        <mxCell id="WcSn6uXNdT3VCejYM9_C-1" value="Initialize dataBank" style="shape=process;whiteSpace=wrap;html=1;backgroundOutline=1;" vertex="1" parent="WIyWlLk6GJQsqaUBKTNV-1">
          <mxGeometry x="77.5" y="390" width="95" height="40" as="geometry" />
        </mxCell>
        <mxCell id="Z-suCwJbQ7CmfizDYJCA-0" style="edgeStyle=orthogonalEdgeStyle;rounded=0;orthogonalLoop=1;jettySize=auto;html=1;exitX=0.5;exitY=1;exitDx=0;exitDy=0;entryX=0.5;entryY=0;entryDx=0;entryDy=0;" edge="1" parent="WIyWlLk6GJQsqaUBKTNV-1" source="Z-suCwJbQ7CmfizDYJCA-1" target="Z-suCwJbQ7CmfizDYJCA-4">
          <mxGeometry relative="1" as="geometry" />
        </mxCell>
        <mxCell id="Z-suCwJbQ7CmfizDYJCA-1" value="Start&lt;br&gt;Programming Board" style="rounded=1;whiteSpace=wrap;html=1;fontSize=12;glass=0;strokeWidth=1;shadow=0;" vertex="1" parent="WIyWlLk6GJQsqaUBKTNV-1">
          <mxGeometry x="360" y="30" width="120" height="40" as="geometry" />
        </mxCell>
        <mxCell id="Z-suCwJbQ7CmfizDYJCA-2" value="yes" style="edgeStyle=orthogonalEdgeStyle;rounded=0;orthogonalLoop=1;jettySize=auto;html=1;exitX=1;exitY=0.5;exitDx=0;exitDy=0;entryX=0;entryY=0.5;entryDx=0;entryDy=0;" edge="1" parent="WIyWlLk6GJQsqaUBKTNV-1" source="Z-suCwJbQ7CmfizDYJCA-4" target="Z-suCwJbQ7CmfizDYJCA-10">
          <mxGeometry relative="1" as="geometry" />
        </mxCell>
        <mxCell id="Z-suCwJbQ7CmfizDYJCA-3" style="edgeStyle=orthogonalEdgeStyle;rounded=0;orthogonalLoop=1;jettySize=auto;html=1;exitX=0.5;exitY=1;exitDx=0;exitDy=0;entryX=0.5;entryY=0;entryDx=0;entryDy=0;" edge="1" parent="WIyWlLk6GJQsqaUBKTNV-1" source="Z-suCwJbQ7CmfizDYJCA-4" target="Z-suCwJbQ7CmfizDYJCA-7">
          <mxGeometry relative="1" as="geometry" />
        </mxCell>
        <mxCell id="Z-suCwJbQ7CmfizDYJCA-4" value="&lt;font style=&quot;font-size: 11px&quot;&gt;Private&lt;br&gt;door open?&lt;/font&gt;" style="rhombus;whiteSpace=wrap;html=1;shadow=0;fontFamily=Helvetica;fontSize=12;align=center;strokeWidth=1;spacing=6;spacingTop=-4;" vertex="1" parent="WIyWlLk6GJQsqaUBKTNV-1">
          <mxGeometry x="370" y="90" width="100" height="80" as="geometry" />
        </mxCell>
        <mxCell id="Z-suCwJbQ7CmfizDYJCA-5" value="yes" style="edgeStyle=orthogonalEdgeStyle;rounded=0;orthogonalLoop=1;jettySize=auto;html=1;exitX=1;exitY=0.5;exitDx=0;exitDy=0;entryX=0;entryY=0.5;entryDx=0;entryDy=0;" edge="1" parent="WIyWlLk6GJQsqaUBKTNV-1" source="Z-suCwJbQ7CmfizDYJCA-7" target="Z-suCwJbQ7CmfizDYJCA-11">
          <mxGeometry relative="1" as="geometry" />
        </mxCell>
        <mxCell id="Z-suCwJbQ7CmfizDYJCA-6" style="edgeStyle=orthogonalEdgeStyle;rounded=0;orthogonalLoop=1;jettySize=auto;html=1;exitX=0.5;exitY=1;exitDx=0;exitDy=0;entryX=0.5;entryY=0;entryDx=0;entryDy=0;" edge="1" parent="WIyWlLk6GJQsqaUBKTNV-1" source="Z-suCwJbQ7CmfizDYJCA-7" target="Z-suCwJbQ7CmfizDYJCA-9">
          <mxGeometry relative="1" as="geometry" />
        </mxCell>
        <mxCell id="Z-suCwJbQ7CmfizDYJCA-7" value="&lt;font style=&quot;font-size: 11px&quot;&gt;Public&lt;br&gt;door open?&lt;/font&gt;" style="rhombus;whiteSpace=wrap;html=1;shadow=0;fontFamily=Helvetica;fontSize=12;align=center;strokeWidth=1;spacing=6;spacingTop=-4;" vertex="1" parent="WIyWlLk6GJQsqaUBKTNV-1">
          <mxGeometry x="370" y="190" width="100" height="80" as="geometry" />
        </mxCell>
        <mxCell id="Z-suCwJbQ7CmfizDYJCA-8" value="yes" style="edgeStyle=orthogonalEdgeStyle;rounded=0;orthogonalLoop=1;jettySize=auto;html=1;exitX=1;exitY=0.5;exitDx=0;exitDy=0;entryX=0;entryY=0.5;entryDx=0;entryDy=0;" edge="1" parent="WIyWlLk6GJQsqaUBKTNV-1" source="Z-suCwJbQ7CmfizDYJCA-9" target="Z-suCwJbQ7CmfizDYJCA-12">
          <mxGeometry relative="1" as="geometry" />
        </mxCell>
        <mxCell id="Z-suCwJbQ7CmfizDYJCA-14" style="edgeStyle=orthogonalEdgeStyle;rounded=0;orthogonalLoop=1;jettySize=auto;html=1;exitX=0.5;exitY=1;exitDx=0;exitDy=0;entryX=0.5;entryY=0;entryDx=0;entryDy=0;" edge="1" parent="WIyWlLk6GJQsqaUBKTNV-1" source="Z-suCwJbQ7CmfizDYJCA-9" target="Z-suCwJbQ7CmfizDYJCA-13">
          <mxGeometry relative="1" as="geometry" />
        </mxCell>
        <mxCell id="Z-suCwJbQ7CmfizDYJCA-9" value="&lt;font style=&quot;font-size: 11px&quot;&gt;Midle&lt;br&gt;door open?&lt;/font&gt;" style="rhombus;whiteSpace=wrap;html=1;shadow=0;fontFamily=Helvetica;fontSize=12;align=center;strokeWidth=1;spacing=6;spacingTop=-4;" vertex="1" parent="WIyWlLk6GJQsqaUBKTNV-1">
          <mxGeometry x="370" y="290" width="100" height="80" as="geometry" />
        </mxCell>
        <mxCell id="Z-suCwJbQ7CmfizDYJCA-10" value="Close door" style="rounded=1;whiteSpace=wrap;html=1;fontSize=12;glass=0;strokeWidth=1;shadow=0;fillColor=#f8cecc;strokeColor=#b85450;" vertex="1" parent="WIyWlLk6GJQsqaUBKTNV-1">
          <mxGeometry x="535" y="110" width="70" height="40" as="geometry" />
        </mxCell>
        <mxCell id="Z-suCwJbQ7CmfizDYJCA-11" value="Close door" style="rounded=1;whiteSpace=wrap;html=1;fontSize=12;glass=0;strokeWidth=1;shadow=0;fillColor=#f8cecc;strokeColor=#b85450;" vertex="1" parent="WIyWlLk6GJQsqaUBKTNV-1">
          <mxGeometry x="535" y="210" width="70" height="40" as="geometry" />
        </mxCell>
        <mxCell id="Z-suCwJbQ7CmfizDYJCA-12" value="Close door" style="rounded=1;whiteSpace=wrap;html=1;fontSize=12;glass=0;strokeWidth=1;shadow=0;fillColor=#f8cecc;strokeColor=#b85450;" vertex="1" parent="WIyWlLk6GJQsqaUBKTNV-1">
          <mxGeometry x="535" y="310" width="70" height="40" as="geometry" />
        </mxCell>
        <mxCell id="Z-suCwJbQ7CmfizDYJCA-13" value="Clean&lt;br&gt;dataBank" style="shape=process;whiteSpace=wrap;html=1;backgroundOutline=1;" vertex="1" parent="WIyWlLk6GJQsqaUBKTNV-1">
          <mxGeometry x="372.5" y="390" width="95" height="40" as="geometry" />
        </mxCell>
      </root>
    </mxGraphModel>
  </diagram>
  <diagram id="rQt64_oms9wYY00uU8ld" name="Initialize dataBank">
    <mxGraphModel dx="1038" dy="548" grid="1" gridSize="10" guides="1" tooltips="1" connect="1" arrows="1" fold="1" page="1" pageScale="1" pageWidth="850" pageHeight="1100" math="0" shadow="0">
      <root>
        <mxCell id="Njd7PY-EI0q73ki9U6ga-0" />
        <mxCell id="Njd7PY-EI0q73ki9U6ga-1" parent="Njd7PY-EI0q73ki9U6ga-0" />
        <mxCell id="Dgmd3wexD-b_6MGQ-cHy-0" style="edgeStyle=orthogonalEdgeStyle;rounded=0;orthogonalLoop=1;jettySize=auto;html=1;exitX=0.5;exitY=1;exitDx=0;exitDy=0;entryX=0.5;entryY=0;entryDx=0;entryDy=0;" edge="1" parent="Njd7PY-EI0q73ki9U6ga-1" source="Dgmd3wexD-b_6MGQ-cHy-1" target="Dgmd3wexD-b_6MGQ-cHy-3">
          <mxGeometry relative="1" as="geometry" />
        </mxCell>
        <mxCell id="Dgmd3wexD-b_6MGQ-cHy-1" value="Start&lt;br&gt;Initialize dataBank" style="rounded=1;whiteSpace=wrap;html=1;fontSize=12;glass=0;strokeWidth=1;shadow=0;" vertex="1" parent="Njd7PY-EI0q73ki9U6ga-1">
          <mxGeometry x="82.5" y="30" width="120" height="40" as="geometry" />
        </mxCell>
        <mxCell id="Dgmd3wexD-b_6MGQ-cHy-2" value="no" style="edgeStyle=orthogonalEdgeStyle;rounded=0;orthogonalLoop=1;jettySize=auto;html=1;exitX=1;exitY=0.5;exitDx=0;exitDy=0;entryX=0;entryY=0.5;entryDx=0;entryDy=0;" edge="1" parent="Njd7PY-EI0q73ki9U6ga-1" source="Dgmd3wexD-b_6MGQ-cHy-3" target="Dgmd3wexD-b_6MGQ-cHy-4">
          <mxGeometry relative="1" as="geometry" />
        </mxCell>
        <mxCell id="Dgmd3wexD-b_6MGQ-cHy-11" style="edgeStyle=orthogonalEdgeStyle;rounded=0;orthogonalLoop=1;jettySize=auto;html=1;exitX=0.5;exitY=1;exitDx=0;exitDy=0;entryX=0.5;entryY=0;entryDx=0;entryDy=0;" edge="1" parent="Njd7PY-EI0q73ki9U6ga-1" source="Dgmd3wexD-b_6MGQ-cHy-3" target="Dgmd3wexD-b_6MGQ-cHy-6">
          <mxGeometry relative="1" as="geometry" />
        </mxCell>
        <mxCell id="Dgmd3wexD-b_6MGQ-cHy-3" value="&lt;span style=&quot;font-size: 11px&quot;&gt;publicAirlockPlayer&lt;br&gt;&lt;/span&gt;table exist ?" style="rhombus;whiteSpace=wrap;html=1;shadow=0;fontFamily=Helvetica;fontSize=12;align=center;strokeWidth=1;spacing=6;spacingTop=-4;" vertex="1" parent="Njd7PY-EI0q73ki9U6ga-1">
          <mxGeometry x="75" y="100" width="135" height="80" as="geometry" />
        </mxCell>
        <mxCell id="Dgmd3wexD-b_6MGQ-cHy-4" value="Create&amp;nbsp;publicAirlockPlayer table" style="rounded=1;whiteSpace=wrap;html=1;fontSize=12;glass=0;strokeWidth=1;shadow=0;fillColor=#d5e8d4;strokeColor=#82b366;" vertex="1" parent="Njd7PY-EI0q73ki9U6ga-1">
          <mxGeometry x="280" y="120" width="190" height="40" as="geometry" />
        </mxCell>
        <mxCell id="Dgmd3wexD-b_6MGQ-cHy-5" value="no" style="edgeStyle=orthogonalEdgeStyle;rounded=0;orthogonalLoop=1;jettySize=auto;html=1;exitX=1;exitY=0.5;exitDx=0;exitDy=0;entryX=0;entryY=0.5;entryDx=0;entryDy=0;" edge="1" parent="Njd7PY-EI0q73ki9U6ga-1" source="Dgmd3wexD-b_6MGQ-cHy-6" target="Dgmd3wexD-b_6MGQ-cHy-7">
          <mxGeometry relative="1" as="geometry" />
        </mxCell>
        <mxCell id="Dgmd3wexD-b_6MGQ-cHy-12" style="edgeStyle=orthogonalEdgeStyle;rounded=0;orthogonalLoop=1;jettySize=auto;html=1;exitX=0.5;exitY=1;exitDx=0;exitDy=0;entryX=0.5;entryY=0;entryDx=0;entryDy=0;" edge="1" parent="Njd7PY-EI0q73ki9U6ga-1" source="Dgmd3wexD-b_6MGQ-cHy-6" target="Dgmd3wexD-b_6MGQ-cHy-8">
          <mxGeometry relative="1" as="geometry" />
        </mxCell>
        <mxCell id="Dgmd3wexD-b_6MGQ-cHy-6" value="&lt;span style=&quot;font-size: 11px&quot;&gt;privateAirlockPlayer&lt;br&gt;&lt;/span&gt;table exist ?" style="rhombus;whiteSpace=wrap;html=1;shadow=0;fontFamily=Helvetica;fontSize=12;align=center;strokeWidth=1;spacing=6;spacingTop=-4;" vertex="1" parent="Njd7PY-EI0q73ki9U6ga-1">
          <mxGeometry x="75" y="200" width="135" height="80" as="geometry" />
        </mxCell>
        <mxCell id="Dgmd3wexD-b_6MGQ-cHy-7" value="Create&amp;nbsp;privateAirlockPlayer table" style="rounded=1;whiteSpace=wrap;html=1;fontSize=12;glass=0;strokeWidth=1;shadow=0;fillColor=#d5e8d4;strokeColor=#82b366;" vertex="1" parent="Njd7PY-EI0q73ki9U6ga-1">
          <mxGeometry x="280" y="220" width="190" height="40" as="geometry" />
        </mxCell>
        <mxCell id="Dgmd3wexD-b_6MGQ-cHy-10" value="no" style="edgeStyle=orthogonalEdgeStyle;rounded=0;orthogonalLoop=1;jettySize=auto;html=1;exitX=1;exitY=0.5;exitDx=0;exitDy=0;" edge="1" parent="Njd7PY-EI0q73ki9U6ga-1" source="Dgmd3wexD-b_6MGQ-cHy-8" target="Dgmd3wexD-b_6MGQ-cHy-9">
          <mxGeometry relative="1" as="geometry" />
        </mxCell>
        <mxCell id="Dgmd3wexD-b_6MGQ-cHy-8" value="&lt;span style=&quot;font-size: 11px&quot;&gt;authorizedPlayer&lt;br&gt;&lt;/span&gt;table exist ?" style="rhombus;whiteSpace=wrap;html=1;shadow=0;fontFamily=Helvetica;fontSize=12;align=center;strokeWidth=1;spacing=6;spacingTop=-4;" vertex="1" parent="Njd7PY-EI0q73ki9U6ga-1">
          <mxGeometry x="75" y="300" width="135" height="80" as="geometry" />
        </mxCell>
        <mxCell id="Dgmd3wexD-b_6MGQ-cHy-9" value="Create&amp;nbsp;&lt;span style=&quot;font-size: 11px&quot;&gt;authorizedPlayer&amp;nbsp;&lt;/span&gt;table" style="rounded=1;whiteSpace=wrap;html=1;fontSize=12;glass=0;strokeWidth=1;shadow=0;fillColor=#d5e8d4;strokeColor=#82b366;" vertex="1" parent="Njd7PY-EI0q73ki9U6ga-1">
          <mxGeometry x="280" y="320" width="190" height="40" as="geometry" />
        </mxCell>
      </root>
    </mxGraphModel>
  </diagram>
  <diagram id="IF0mQ-LuV1Tpjcg1SQC_" name="Clean dataBank">
    <mxGraphModel dx="1038" dy="548" grid="1" gridSize="10" guides="1" tooltips="1" connect="1" arrows="1" fold="1" page="1" pageScale="1" pageWidth="850" pageHeight="1100" math="0" shadow="0">
      <root>
        <mxCell id="nWARyGKw-XiWnQ_imV8j-0" />
        <mxCell id="nWARyGKw-XiWnQ_imV8j-1" parent="nWARyGKw-XiWnQ_imV8j-0" />
        <mxCell id="3AGB_vzgTLa2qWPNHoHQ-0" value="Start&lt;br&gt;clean dataBank" style="rounded=1;whiteSpace=wrap;html=1;fontSize=12;glass=0;strokeWidth=1;shadow=0;" vertex="1" parent="nWARyGKw-XiWnQ_imV8j-1">
          <mxGeometry x="82.5" y="30" width="120" height="40" as="geometry" />
        </mxCell>
      </root>
    </mxGraphModel>
  </diagram>
  <diagram id="JoOrTzSdZAA-jJpKlGrJ" name="Enter Event">
    <mxGraphModel dx="1038" dy="548" grid="1" gridSize="10" guides="1" tooltips="1" connect="1" arrows="1" fold="1" page="1" pageScale="1" pageWidth="850" pageHeight="1100" math="0" shadow="0">
      <root>
        <mxCell id="kcCqXkzCqeFxSjuHiJ_i-0" />
        <mxCell id="kcCqXkzCqeFxSjuHiJ_i-1" parent="kcCqXkzCqeFxSjuHiJ_i-0" />
        <mxCell id="O1378wzvG6jis6ytJI1n-5" style="edgeStyle=orthogonalEdgeStyle;rounded=0;orthogonalLoop=1;jettySize=auto;html=1;exitX=0.5;exitY=1;exitDx=0;exitDy=0;entryX=0.5;entryY=0;entryDx=0;entryDy=0;" edge="1" parent="kcCqXkzCqeFxSjuHiJ_i-1" source="ouCwYKBbwuouym_8MA_f-0" target="1KSWV5fCrwemouwUN_5a-0">
          <mxGeometry relative="1" as="geometry" />
        </mxCell>
        <mxCell id="ouCwYKBbwuouym_8MA_f-0" value="Start&lt;br&gt;Detector Event" style="rounded=1;whiteSpace=wrap;html=1;fontSize=12;glass=0;strokeWidth=1;shadow=0;" vertex="1" parent="kcCqXkzCqeFxSjuHiJ_i-1">
          <mxGeometry x="200" y="50" width="120" height="40" as="geometry" />
        </mxCell>
        <mxCell id="O1378wzvG6jis6ytJI1n-3" style="edgeStyle=orthogonalEdgeStyle;rounded=0;orthogonalLoop=1;jettySize=auto;html=1;exitX=0;exitY=0.5;exitDx=0;exitDy=0;" edge="1" parent="kcCqXkzCqeFxSjuHiJ_i-1" source="1KSWV5fCrwemouwUN_5a-0" target="O1378wzvG6jis6ytJI1n-1">
          <mxGeometry relative="1" as="geometry" />
        </mxCell>
        <mxCell id="O1378wzvG6jis6ytJI1n-4" value="Enter" style="edgeStyle=orthogonalEdgeStyle;rounded=0;orthogonalLoop=1;jettySize=auto;html=1;exitX=1;exitY=0.5;exitDx=0;exitDy=0;entryX=0;entryY=0.5;entryDx=0;entryDy=0;" edge="1" parent="kcCqXkzCqeFxSjuHiJ_i-1" source="1KSWV5fCrwemouwUN_5a-0" target="O1378wzvG6jis6ytJI1n-0">
          <mxGeometry x="0.3333" y="10" relative="1" as="geometry">
            <mxPoint as="offset" />
          </mxGeometry>
        </mxCell>
        <mxCell id="O1378wzvG6jis6ytJI1n-6" value="Leave" style="edgeStyle=orthogonalEdgeStyle;rounded=0;orthogonalLoop=1;jettySize=auto;html=1;" edge="1" parent="kcCqXkzCqeFxSjuHiJ_i-1" source="1KSWV5fCrwemouwUN_5a-0" target="O1378wzvG6jis6ytJI1n-1">
          <mxGeometry x="0.3333" y="-10" relative="1" as="geometry">
            <mxPoint as="offset" />
          </mxGeometry>
        </mxCell>
        <mxCell id="1KSWV5fCrwemouwUN_5a-0" value="Type" style="rhombus;whiteSpace=wrap;html=1;" vertex="1" parent="kcCqXkzCqeFxSjuHiJ_i-1">
          <mxGeometry x="220" y="130" width="80" height="80" as="geometry" />
        </mxCell>
        <mxCell id="O1378wzvG6jis6ytJI1n-10" value="no" style="edgeStyle=orthogonalEdgeStyle;rounded=0;orthogonalLoop=1;jettySize=auto;html=1;exitX=0.5;exitY=1;exitDx=0;exitDy=0;entryX=0.5;entryY=0;entryDx=0;entryDy=0;" edge="1" parent="kcCqXkzCqeFxSjuHiJ_i-1" source="2e1RDjCtCfTWU_KFIIWo-0" target="O1378wzvG6jis6ytJI1n-9">
          <mxGeometry relative="1" as="geometry" />
        </mxCell>
        <mxCell id="O1378wzvG6jis6ytJI1n-0" value="Add airlock player" style="shape=process;whiteSpace=wrap;html=1;backgroundOutline=1;" vertex="1" parent="kcCqXkzCqeFxSjuHiJ_i-1">
          <mxGeometry x="360" y="150" width="100" height="40" as="geometry" />
        </mxCell>
        <mxCell id="O1378wzvG6jis6ytJI1n-1" value="Remove airlock player" style="shape=process;whiteSpace=wrap;html=1;backgroundOutline=1;" vertex="1" parent="kcCqXkzCqeFxSjuHiJ_i-1">
          <mxGeometry x="60" y="150" width="100" height="40" as="geometry" />
        </mxCell>
        <mxCell id="O1378wzvG6jis6ytJI1n-9" value="Run public process step 01" style="shape=process;whiteSpace=wrap;html=1;backgroundOutline=1;" vertex="1" parent="kcCqXkzCqeFxSjuHiJ_i-1">
          <mxGeometry x="355" y="340" width="110" height="40" as="geometry" />
        </mxCell>
        <mxCell id="2e1RDjCtCfTWU_KFIIWo-3" style="edgeStyle=orthogonalEdgeStyle;rounded=0;orthogonalLoop=1;jettySize=auto;html=1;exitX=1;exitY=0.5;exitDx=0;exitDy=0;entryX=0;entryY=0.5;entryDx=0;entryDy=0;" edge="1" parent="kcCqXkzCqeFxSjuHiJ_i-1" source="2e1RDjCtCfTWU_KFIIWo-0" target="2e1RDjCtCfTWU_KFIIWo-2">
          <mxGeometry relative="1" as="geometry" />
        </mxCell>
        <mxCell id="2e1RDjCtCfTWU_KFIIWo-0" value="Middle door&lt;br&gt;is open ?" style="rhombus;whiteSpace=wrap;html=1;" vertex="1" parent="kcCqXkzCqeFxSjuHiJ_i-1">
          <mxGeometry x="370" y="220" width="80" height="80" as="geometry" />
        </mxCell>
        <mxCell id="2e1RDjCtCfTWU_KFIIWo-1" style="edgeStyle=orthogonalEdgeStyle;rounded=0;orthogonalLoop=1;jettySize=auto;html=1;exitX=0.5;exitY=1;exitDx=0;exitDy=0;entryX=0.5;entryY=0;entryDx=0;entryDy=0;" edge="1" parent="kcCqXkzCqeFxSjuHiJ_i-1" source="O1378wzvG6jis6ytJI1n-0" target="2e1RDjCtCfTWU_KFIIWo-0">
          <mxGeometry relative="1" as="geometry">
            <mxPoint x="410" y="190" as="sourcePoint" />
            <mxPoint x="410" y="340" as="targetPoint" />
          </mxGeometry>
        </mxCell>
        <mxCell id="2e1RDjCtCfTWU_KFIIWo-2" value="Run public process step 03" style="shape=process;whiteSpace=wrap;html=1;backgroundOutline=1;" vertex="1" parent="kcCqXkzCqeFxSjuHiJ_i-1">
          <mxGeometry x="480" y="240" width="110" height="40" as="geometry" />
        </mxCell>
        <mxCell id="OL1a_isMaVEvgdCVi2KT-1" value="Enter or Leave" style="edgeStyle=orthogonalEdgeStyle;rounded=0;orthogonalLoop=1;jettySize=auto;html=1;" edge="1" parent="kcCqXkzCqeFxSjuHiJ_i-1" source="OL1a_isMaVEvgdCVi2KT-0" target="ouCwYKBbwuouym_8MA_f-0">
          <mxGeometry relative="1" as="geometry">
            <Array as="points">
              <mxPoint x="420" y="70" />
              <mxPoint x="420" y="70" />
            </Array>
          </mxGeometry>
        </mxCell>
        <mxCell id="OL1a_isMaVEvgdCVi2KT-0" value="Jean-Kevin" style="shape=umlActor;verticalLabelPosition=bottom;verticalAlign=top;html=1;outlineConnect=0;" vertex="1" parent="kcCqXkzCqeFxSjuHiJ_i-1">
          <mxGeometry x="490" y="40" width="30" height="60" as="geometry" />
        </mxCell>
      </root>
    </mxGraphModel>
  </diagram>
  <diagram id="AIMyiEmrp1AALiO4rSiN" name="Public Process">
    <mxGraphModel dx="1038" dy="548" grid="1" gridSize="10" guides="1" tooltips="1" connect="1" arrows="1" fold="1" page="1" pageScale="1" pageWidth="850" pageHeight="1100" math="0" shadow="0">
      <root>
        <mxCell id="ak3lI0ed5FuYyWWKIi4Z-0" />
        <mxCell id="ak3lI0ed5FuYyWWKIi4Z-1" parent="ak3lI0ed5FuYyWWKIi4Z-0" />
        <mxCell id="1ANdTERJNQsLqH8vp39T-14" style="edgeStyle=orthogonalEdgeStyle;rounded=0;orthogonalLoop=1;jettySize=auto;html=1;exitX=0.5;exitY=1;exitDx=0;exitDy=0;entryX=0.5;entryY=0;entryDx=0;entryDy=0;" parent="ak3lI0ed5FuYyWWKIi4Z-1" source="1ANdTERJNQsLqH8vp39T-0" target="1ANdTERJNQsLqH8vp39T-1" edge="1">
          <mxGeometry relative="1" as="geometry" />
        </mxCell>
        <mxCell id="1ANdTERJNQsLqH8vp39T-0" value="Start&lt;br&gt;Public Process&amp;nbsp;&lt;br&gt;Step 01" style="rounded=1;whiteSpace=wrap;html=1;fontSize=12;glass=0;strokeWidth=1;shadow=0;" parent="ak3lI0ed5FuYyWWKIi4Z-1" vertex="1">
          <mxGeometry x="100" y="90" width="120" height="50" as="geometry" />
        </mxCell>
        <mxCell id="1ANdTERJNQsLqH8vp39T-4" value="&amp;gt; 1" style="edgeStyle=orthogonalEdgeStyle;rounded=0;orthogonalLoop=1;jettySize=auto;html=1;exitX=1;exitY=0.5;exitDx=0;exitDy=0;" parent="ak3lI0ed5FuYyWWKIi4Z-1" source="1ANdTERJNQsLqH8vp39T-1" target="1ANdTERJNQsLqH8vp39T-3" edge="1">
          <mxGeometry relative="1" as="geometry" />
        </mxCell>
        <mxCell id="1ANdTERJNQsLqH8vp39T-7" value="= 1" style="edgeStyle=orthogonalEdgeStyle;rounded=0;orthogonalLoop=1;jettySize=auto;html=1;exitX=0.5;exitY=1;exitDx=0;exitDy=0;entryX=0.5;entryY=0;entryDx=0;entryDy=0;" parent="ak3lI0ed5FuYyWWKIi4Z-1" source="1ANdTERJNQsLqH8vp39T-1" target="1ANdTERJNQsLqH8vp39T-2" edge="1">
          <mxGeometry relative="1" as="geometry" />
        </mxCell>
        <mxCell id="1ANdTERJNQsLqH8vp39T-1" value="Public&lt;br&gt;airlock&lt;br&gt;count" style="rhombus;whiteSpace=wrap;html=1;" parent="ak3lI0ed5FuYyWWKIi4Z-1" vertex="1">
          <mxGeometry x="120" y="160" width="80" height="80" as="geometry" />
        </mxCell>
        <mxCell id="1ANdTERJNQsLqH8vp39T-6" value="&amp;gt; 1" style="edgeStyle=orthogonalEdgeStyle;rounded=0;orthogonalLoop=1;jettySize=auto;html=1;exitX=1;exitY=0.5;exitDx=0;exitDy=0;entryX=0;entryY=0.5;entryDx=0;entryDy=0;" parent="ak3lI0ed5FuYyWWKIi4Z-1" source="1ANdTERJNQsLqH8vp39T-2" target="1ANdTERJNQsLqH8vp39T-5" edge="1">
          <mxGeometry relative="1" as="geometry" />
        </mxCell>
        <mxCell id="1ANdTERJNQsLqH8vp39T-9" value="=1" style="edgeStyle=orthogonalEdgeStyle;rounded=0;orthogonalLoop=1;jettySize=auto;html=1;exitX=0.5;exitY=1;exitDx=0;exitDy=0;entryX=0.5;entryY=0;entryDx=0;entryDy=0;" parent="ak3lI0ed5FuYyWWKIi4Z-1" source="1ANdTERJNQsLqH8vp39T-2" target="1ANdTERJNQsLqH8vp39T-8" edge="1">
          <mxGeometry relative="1" as="geometry" />
        </mxCell>
        <mxCell id="1ANdTERJNQsLqH8vp39T-2" value="Private&lt;br&gt;airlock&lt;br&gt;count" style="rhombus;whiteSpace=wrap;html=1;" parent="ak3lI0ed5FuYyWWKIi4Z-1" vertex="1">
          <mxGeometry x="120" y="280" width="80" height="80" as="geometry" />
        </mxCell>
        <mxCell id="1ANdTERJNQsLqH8vp39T-3" value="Screen Error" style="rounded=1;whiteSpace=wrap;html=1;fontSize=12;glass=0;strokeWidth=1;shadow=0;fillColor=#f8cecc;strokeColor=#b85450;" parent="ak3lI0ed5FuYyWWKIi4Z-1" vertex="1">
          <mxGeometry x="280" y="180" width="120" height="40" as="geometry" />
        </mxCell>
        <mxCell id="1ANdTERJNQsLqH8vp39T-5" value="Screen Error" style="rounded=1;whiteSpace=wrap;html=1;fontSize=12;glass=0;strokeWidth=1;shadow=0;fillColor=#f8cecc;strokeColor=#b85450;" parent="ak3lI0ed5FuYyWWKIi4Z-1" vertex="1">
          <mxGeometry x="280" y="300" width="120" height="40" as="geometry" />
        </mxCell>
        <mxCell id="1ANdTERJNQsLqH8vp39T-11" value="no" style="edgeStyle=orthogonalEdgeStyle;rounded=0;orthogonalLoop=1;jettySize=auto;html=1;exitX=1;exitY=0.5;exitDx=0;exitDy=0;entryX=0;entryY=0.5;entryDx=0;entryDy=0;" parent="ak3lI0ed5FuYyWWKIi4Z-1" source="1ANdTERJNQsLqH8vp39T-8" target="1ANdTERJNQsLqH8vp39T-10" edge="1">
          <mxGeometry relative="1" as="geometry" />
        </mxCell>
        <mxCell id="1ANdTERJNQsLqH8vp39T-13" style="edgeStyle=orthogonalEdgeStyle;rounded=0;orthogonalLoop=1;jettySize=auto;html=1;exitX=0.5;exitY=1;exitDx=0;exitDy=0;entryX=0.5;entryY=0;entryDx=0;entryDy=0;" parent="ak3lI0ed5FuYyWWKIi4Z-1" source="1ANdTERJNQsLqH8vp39T-8" target="1ANdTERJNQsLqH8vp39T-12" edge="1">
          <mxGeometry relative="1" as="geometry" />
        </mxCell>
        <mxCell id="1ANdTERJNQsLqH8vp39T-8" value="Authorized&lt;br&gt;Player" style="rhombus;whiteSpace=wrap;html=1;" parent="ak3lI0ed5FuYyWWKIi4Z-1" vertex="1">
          <mxGeometry x="120" y="400" width="80" height="80" as="geometry" />
        </mxCell>
        <mxCell id="1ANdTERJNQsLqH8vp39T-10" value="Screen Error" style="rounded=1;whiteSpace=wrap;html=1;fontSize=12;glass=0;strokeWidth=1;shadow=0;fillColor=#f8cecc;strokeColor=#b85450;" parent="ak3lI0ed5FuYyWWKIi4Z-1" vertex="1">
          <mxGeometry x="280" y="420" width="120" height="40" as="geometry" />
        </mxCell>
        <mxCell id="1ANdTERJNQsLqH8vp39T-12" value="Schedule Step02&lt;br&gt;with 2 seconds delai" style="shape=process;whiteSpace=wrap;html=1;backgroundOutline=1;" parent="ak3lI0ed5FuYyWWKIi4Z-1" vertex="1">
          <mxGeometry x="100" y="500" width="120" height="50" as="geometry" />
        </mxCell>
        <mxCell id="hm5vWF0TwHa6Rwv7X3fc-12" style="edgeStyle=orthogonalEdgeStyle;rounded=0;orthogonalLoop=1;jettySize=auto;html=1;exitX=0.5;exitY=1;exitDx=0;exitDy=0;entryX=0.5;entryY=0;entryDx=0;entryDy=0;" parent="ak3lI0ed5FuYyWWKIi4Z-1" source="1ANdTERJNQsLqH8vp39T-15" target="1ANdTERJNQsLqH8vp39T-16" edge="1">
          <mxGeometry relative="1" as="geometry" />
        </mxCell>
        <mxCell id="1ANdTERJNQsLqH8vp39T-15" value="Start&lt;br&gt;Public Process&amp;nbsp;&lt;br&gt;Step 02" style="rounded=1;whiteSpace=wrap;html=1;fontSize=12;glass=0;strokeWidth=1;shadow=0;" parent="ak3lI0ed5FuYyWWKIi4Z-1" vertex="1">
          <mxGeometry x="425" y="90" width="120" height="50" as="geometry" />
        </mxCell>
        <mxCell id="hm5vWF0TwHa6Rwv7X3fc-13" style="edgeStyle=orthogonalEdgeStyle;rounded=0;orthogonalLoop=1;jettySize=auto;html=1;exitX=0.5;exitY=1;exitDx=0;exitDy=0;entryX=0.5;entryY=0;entryDx=0;entryDy=0;" parent="ak3lI0ed5FuYyWWKIi4Z-1" source="1ANdTERJNQsLqH8vp39T-16" target="hm5vWF0TwHa6Rwv7X3fc-0" edge="1">
          <mxGeometry relative="1" as="geometry" />
        </mxCell>
        <mxCell id="1ANdTERJNQsLqH8vp39T-16" value="Close public door" style="rounded=0;whiteSpace=wrap;html=1;" parent="ak3lI0ed5FuYyWWKIi4Z-1" vertex="1">
          <mxGeometry x="425" y="170" width="120" height="30" as="geometry" />
        </mxCell>
        <mxCell id="hm5vWF0TwHa6Rwv7X3fc-14" style="edgeStyle=orthogonalEdgeStyle;rounded=0;orthogonalLoop=1;jettySize=auto;html=1;exitX=0.5;exitY=1;exitDx=0;exitDy=0;entryX=0.5;entryY=0;entryDx=0;entryDy=0;" parent="ak3lI0ed5FuYyWWKIi4Z-1" source="hm5vWF0TwHa6Rwv7X3fc-0" target="hm5vWF0TwHa6Rwv7X3fc-3" edge="1">
          <mxGeometry relative="1" as="geometry" />
        </mxCell>
        <mxCell id="hm5vWF0TwHa6Rwv7X3fc-0" value="Close private door" style="rounded=0;whiteSpace=wrap;html=1;" parent="ak3lI0ed5FuYyWWKIi4Z-1" vertex="1">
          <mxGeometry x="425" y="220" width="120" height="30" as="geometry" />
        </mxCell>
        <mxCell id="hm5vWF0TwHa6Rwv7X3fc-1" value="&amp;gt; 1" style="edgeStyle=orthogonalEdgeStyle;rounded=0;orthogonalLoop=1;jettySize=auto;html=1;exitX=1;exitY=0.5;exitDx=0;exitDy=0;" parent="ak3lI0ed5FuYyWWKIi4Z-1" source="hm5vWF0TwHa6Rwv7X3fc-3" target="hm5vWF0TwHa6Rwv7X3fc-6" edge="1">
          <mxGeometry relative="1" as="geometry" />
        </mxCell>
        <mxCell id="hm5vWF0TwHa6Rwv7X3fc-2" value="= 1" style="edgeStyle=orthogonalEdgeStyle;rounded=0;orthogonalLoop=1;jettySize=auto;html=1;exitX=0.5;exitY=1;exitDx=0;exitDy=0;entryX=0.5;entryY=0;entryDx=0;entryDy=0;" parent="ak3lI0ed5FuYyWWKIi4Z-1" source="hm5vWF0TwHa6Rwv7X3fc-3" target="hm5vWF0TwHa6Rwv7X3fc-5" edge="1">
          <mxGeometry relative="1" as="geometry" />
        </mxCell>
        <mxCell id="hm5vWF0TwHa6Rwv7X3fc-3" value="Public&lt;br&gt;airlock&lt;br&gt;count" style="rhombus;whiteSpace=wrap;html=1;" parent="ak3lI0ed5FuYyWWKIi4Z-1" vertex="1">
          <mxGeometry x="440" y="270" width="80" height="80" as="geometry" />
        </mxCell>
        <mxCell id="hm5vWF0TwHa6Rwv7X3fc-4" value="&amp;gt; 1" style="edgeStyle=orthogonalEdgeStyle;rounded=0;orthogonalLoop=1;jettySize=auto;html=1;exitX=1;exitY=0.5;exitDx=0;exitDy=0;entryX=0;entryY=0.5;entryDx=0;entryDy=0;" parent="ak3lI0ed5FuYyWWKIi4Z-1" source="hm5vWF0TwHa6Rwv7X3fc-5" target="hm5vWF0TwHa6Rwv7X3fc-7" edge="1">
          <mxGeometry relative="1" as="geometry" />
        </mxCell>
        <mxCell id="hm5vWF0TwHa6Rwv7X3fc-5" value="Private&lt;br&gt;airlock&lt;br&gt;count" style="rhombus;whiteSpace=wrap;html=1;" parent="ak3lI0ed5FuYyWWKIi4Z-1" vertex="1">
          <mxGeometry x="440" y="390" width="80" height="80" as="geometry" />
        </mxCell>
        <mxCell id="hm5vWF0TwHa6Rwv7X3fc-10" style="edgeStyle=orthogonalEdgeStyle;rounded=0;orthogonalLoop=1;jettySize=auto;html=1;exitX=1;exitY=0.5;exitDx=0;exitDy=0;entryX=0;entryY=0.5;entryDx=0;entryDy=0;" parent="ak3lI0ed5FuYyWWKIi4Z-1" source="hm5vWF0TwHa6Rwv7X3fc-6" target="hm5vWF0TwHa6Rwv7X3fc-8" edge="1">
          <mxGeometry relative="1" as="geometry" />
        </mxCell>
        <mxCell id="hm5vWF0TwHa6Rwv7X3fc-6" value="Screen Error" style="rounded=1;whiteSpace=wrap;html=1;fontSize=12;glass=0;strokeWidth=1;shadow=0;fillColor=#f8cecc;strokeColor=#b85450;" parent="ak3lI0ed5FuYyWWKIi4Z-1" vertex="1">
          <mxGeometry x="600" y="290" width="120" height="40" as="geometry" />
        </mxCell>
        <mxCell id="hm5vWF0TwHa6Rwv7X3fc-29" style="edgeStyle=orthogonalEdgeStyle;rounded=0;orthogonalLoop=1;jettySize=auto;html=1;entryX=0;entryY=0.5;entryDx=0;entryDy=0;" edge="1" parent="ak3lI0ed5FuYyWWKIi4Z-1" source="hm5vWF0TwHa6Rwv7X3fc-7" target="hm5vWF0TwHa6Rwv7X3fc-8">
          <mxGeometry relative="1" as="geometry" />
        </mxCell>
        <mxCell id="hm5vWF0TwHa6Rwv7X3fc-7" value="Screen Error" style="rounded=1;whiteSpace=wrap;html=1;fontSize=12;glass=0;strokeWidth=1;shadow=0;fillColor=#f8cecc;strokeColor=#b85450;" parent="ak3lI0ed5FuYyWWKIi4Z-1" vertex="1">
          <mxGeometry x="599" y="410" width="121" height="40" as="geometry" />
        </mxCell>
        <mxCell id="hm5vWF0TwHa6Rwv7X3fc-31" style="edgeStyle=orthogonalEdgeStyle;rounded=0;orthogonalLoop=1;jettySize=auto;html=1;exitX=0.5;exitY=1;exitDx=0;exitDy=0;entryX=0.5;entryY=0;entryDx=0;entryDy=0;" edge="1" parent="ak3lI0ed5FuYyWWKIi4Z-1" source="hm5vWF0TwHa6Rwv7X3fc-8" target="hm5vWF0TwHa6Rwv7X3fc-22">
          <mxGeometry relative="1" as="geometry" />
        </mxCell>
        <mxCell id="hm5vWF0TwHa6Rwv7X3fc-8" value="Open public door" style="rounded=0;whiteSpace=wrap;html=1;" parent="ak3lI0ed5FuYyWWKIi4Z-1" vertex="1">
          <mxGeometry x="790" y="415" width="120" height="30" as="geometry" />
        </mxCell>
        <mxCell id="hm5vWF0TwHa6Rwv7X3fc-15" value="=1" style="edgeStyle=orthogonalEdgeStyle;rounded=0;orthogonalLoop=1;jettySize=auto;html=1;exitX=0.5;exitY=1;exitDx=0;exitDy=0;entryX=0.5;entryY=0;entryDx=0;entryDy=0;" parent="ak3lI0ed5FuYyWWKIi4Z-1" source="hm5vWF0TwHa6Rwv7X3fc-5" target="hm5vWF0TwHa6Rwv7X3fc-17" edge="1">
          <mxGeometry relative="1" as="geometry">
            <mxPoint x="480" y="500" as="sourcePoint" />
          </mxGeometry>
        </mxCell>
        <mxCell id="hm5vWF0TwHa6Rwv7X3fc-16" value="no" style="edgeStyle=orthogonalEdgeStyle;rounded=0;orthogonalLoop=1;jettySize=auto;html=1;exitX=1;exitY=0.5;exitDx=0;exitDy=0;entryX=0;entryY=0.5;entryDx=0;entryDy=0;" parent="ak3lI0ed5FuYyWWKIi4Z-1" source="hm5vWF0TwHa6Rwv7X3fc-17" target="hm5vWF0TwHa6Rwv7X3fc-18" edge="1">
          <mxGeometry relative="1" as="geometry" />
        </mxCell>
        <mxCell id="hm5vWF0TwHa6Rwv7X3fc-20" style="edgeStyle=orthogonalEdgeStyle;rounded=0;orthogonalLoop=1;jettySize=auto;html=1;exitX=0.5;exitY=1;exitDx=0;exitDy=0;entryX=0.5;entryY=0;entryDx=0;entryDy=0;" parent="ak3lI0ed5FuYyWWKIi4Z-1" source="hm5vWF0TwHa6Rwv7X3fc-17" target="hm5vWF0TwHa6Rwv7X3fc-19" edge="1">
          <mxGeometry relative="1" as="geometry" />
        </mxCell>
        <mxCell id="hm5vWF0TwHa6Rwv7X3fc-17" value="Authorized&lt;br&gt;Player" style="rhombus;whiteSpace=wrap;html=1;" parent="ak3lI0ed5FuYyWWKIi4Z-1" vertex="1">
          <mxGeometry x="440" y="510" width="80" height="80" as="geometry" />
        </mxCell>
        <mxCell id="hm5vWF0TwHa6Rwv7X3fc-30" style="edgeStyle=orthogonalEdgeStyle;rounded=0;orthogonalLoop=1;jettySize=auto;html=1;entryX=0;entryY=0.5;entryDx=0;entryDy=0;" edge="1" parent="ak3lI0ed5FuYyWWKIi4Z-1" source="hm5vWF0TwHa6Rwv7X3fc-18" target="hm5vWF0TwHa6Rwv7X3fc-8">
          <mxGeometry relative="1" as="geometry">
            <mxPoint x="820" y="450" as="targetPoint" />
          </mxGeometry>
        </mxCell>
        <mxCell id="hm5vWF0TwHa6Rwv7X3fc-18" value="Screen Error" style="rounded=1;whiteSpace=wrap;html=1;fontSize=12;glass=0;strokeWidth=1;shadow=0;fillColor=#f8cecc;strokeColor=#b85450;" parent="ak3lI0ed5FuYyWWKIi4Z-1" vertex="1">
          <mxGeometry x="599" y="530" width="120" height="40" as="geometry" />
        </mxCell>
        <mxCell id="hm5vWF0TwHa6Rwv7X3fc-19" value="Open Midle door" style="rounded=0;whiteSpace=wrap;html=1;" parent="ak3lI0ed5FuYyWWKIi4Z-1" vertex="1">
          <mxGeometry x="420" y="620" width="120" height="30" as="geometry" />
        </mxCell>
        <mxCell id="hm5vWF0TwHa6Rwv7X3fc-22" value="Open private door" style="rounded=0;whiteSpace=wrap;html=1;" vertex="1" parent="ak3lI0ed5FuYyWWKIi4Z-1">
          <mxGeometry x="790" y="470" width="120" height="30" as="geometry" />
        </mxCell>
      </root>
    </mxGraphModel>
  </diagram>
</mxfile>
